<?xml version="1.0" encoding="utf-8"?>
<!-- Generator: Adobe Illustrator 16.0.3, SVG Export Plug-In . SVG Version: 6.00 Build 0)  -->
<!DOCTYPE svg PUBLIC "-//W3C//DTD SVG 1.1//EN" "http://www.w3.org/Graphics/SVG/1.1/DTD/svg11.dtd">
<svg version="1.1" xmlns="http://www.w3.org/2000/svg" xmlns:xlink="http://www.w3.org/1999/xlink" x="0px" y="0px"
	 width="274.408px" height="108.428px" viewBox="0 0 274.408 108.428" enable-background="new 0 0 274.408 108.428"
	 xml:space="preserve">
<g id="shapes">
	<polygon fill="#321565" points="89.45,9.488 36.781,9.488 10.815,53.408 36.831,99.073 89.399,99.073 115.138,53.407 		"/>
	<polygon fill="#321565" points="237.932,9.354 185.263,9.354 185.244,9.386 100.227,9.386 125.924,53.321 100.2,98.961 
			236.924,98.961 236.924,98.938 237.882,98.938 263.621,53.274 		"/>
</g>
<g id="Text">
	<path fill="#FFFFFF" d="M142.664,31.032l-1.457,3.425h-1.473l5.57-12.645l5.427,12.645h-1.489l-1.424-3.425H142.664z
		 M145.273,24.949l-2.065,4.834h4.082L145.273,24.949z"/>
	<path fill="#FFFFFF" d="M154.824,23.637v3.585h4.018v1.249h-4.018v5.986h-1.345V22.388h5.49v1.249H154.824z"/>
	<path fill="#FFFFFF" d="M163.912,34.457h-1.345V22.388h1.744c2.289,0,4.418,0.608,4.418,3.329c0,1.857-1.168,3.169-3.025,3.33
		l3.842,5.41h-1.648l-3.649-5.298h-0.336V34.457z M163.912,27.975h0.416c1.521,0,3.057-0.288,3.057-2.161
		c0-1.985-1.456-2.177-3.073-2.177h-0.399V27.975z"/>
	<path fill="#FFFFFF" d="M174.055,34.457h-1.345V22.388h1.345V34.457z"/>
	<path fill="#FFFFFF" d="M187.146,25.029c-0.96-0.993-2.289-1.601-3.682-1.601c-2.688,0-4.865,2.337-4.865,4.994
		c0,2.657,2.192,4.994,4.897,4.994c1.36,0,2.689-0.64,3.649-1.601v1.665c-1.04,0.752-2.32,1.185-3.602,1.185
		c-3.409,0-6.29-2.769-6.29-6.194c0-3.458,2.833-6.291,6.29-6.291c1.345,0,2.529,0.384,3.602,1.185V25.029z"/>
	<path fill="#FFFFFF" d="M192.664,31.032l-1.457,3.425h-1.473l5.57-12.645l5.427,12.645h-1.489l-1.424-3.425H192.664z
		 M195.273,24.949l-2.065,4.834h4.082L195.273,24.949z"/>
	<path fill="#FFFFFF" d="M203.559,21.876l9.411,9.86v-9.348h1.345v12.613l-9.412-9.844v9.3h-1.344V21.876z"/>
	<path fill="#FFFFFF" d="M150.577,45.531c0.028,1.429-0.126,2.605-1.093,3.726c-0.966,1.121-2.438,1.765-3.908,1.765
		c-2.969,0-5.435-2.465-5.435-5.435c0-3.025,2.466-5.491,5.505-5.491c1.849,0,3.348,0.826,4.469,2.283l-0.854,0.798
		c-0.883-1.247-2.073-1.989-3.628-1.989c-2.409,0-4.314,2.031-4.314,4.413c0,1.121,0.448,2.185,1.232,2.983
		c0.771,0.771,1.892,1.345,2.998,1.345c1.835,0,3.768-1.345,3.768-3.306h-3.138v-1.093H150.577z"/>
	<path fill="#FFFFFF" d="M159.603,50.84h-1.177V40.278h1.177V50.84z"/>
	<path fill="#FFFFFF" d="M169.08,41.371v3.138h3.516v1.093h-3.516v5.239h-1.177V40.278h4.805v1.092H169.08z"/>
	<path fill="#FFFFFF" d="M183.558,50.84h-1.177v-9.469h-2.55v-1.092h6.304v1.092h-2.577V50.84z"/>
	<path fill="#FFFFFF" d="M193.495,40.278h5.478v1.092h-4.301v3.138h4.174v1.093h-4.174v4.146h4.301v1.093h-5.478V40.278z"/>
	<path fill="#FFFFFF" d="M207.132,40.278h1.989c1.583,0,2.871,0.21,4.118,1.274c1.205,1.037,1.751,2.451,1.751,4.021
		c0,1.541-0.561,2.899-1.723,3.936c-1.261,1.121-2.521,1.331-4.175,1.331h-1.961V40.278z M209.163,49.747
		c1.289,0,2.367-0.182,3.334-1.092c0.868-0.812,1.316-1.919,1.316-3.096c0-1.205-0.462-2.367-1.373-3.166
		c-0.966-0.854-2.03-1.022-3.277-1.022h-0.854v8.376H209.163z"/>
	<path fill="#FFFFFF" d="M151.233,78.289c0.028,1.429-0.126,2.605-1.093,3.726c-0.966,1.121-2.438,1.765-3.908,1.765
		c-2.969,0-5.435-2.465-5.435-5.435c0-3.025,2.466-5.491,5.505-5.491c1.849,0,3.348,0.827,4.469,2.283l-0.854,0.799
		c-0.883-1.247-2.073-1.989-3.628-1.989c-2.409,0-4.314,2.031-4.314,4.412c0,1.121,0.448,2.186,1.232,2.984
		c0.771,0.771,1.892,1.345,2.998,1.345c1.835,0,3.768-1.345,3.768-3.306h-3.138v-1.093H151.233z"/>
	<path fill="#FFFFFF" d="M164.993,77.322v-4.286h1.177v10.562h-1.177v-5.183h-5.407v5.183h-1.176V73.036h1.176v4.286H164.993z"/>
	<path fill="#FFFFFF" d="M175.393,80.6l-1.274,2.998h-1.289l4.875-11.066l4.748,11.066h-1.303l-1.246-2.998H175.393z
		 M177.676,75.277l-1.807,4.23h3.571L177.676,75.277z"/>
	<path fill="#FFFFFF" d="M189.126,72.588l8.236,8.629v-8.181h1.177v11.038l-8.236-8.615v8.139h-1.177V72.588z"/>
	<path fill="#FFFFFF" d="M207.774,80.6l-1.274,2.998h-1.289l4.875-11.066l4.748,11.066h-1.303l-1.246-2.998H207.774z
		 M210.058,75.277l-1.807,4.23h3.571L210.058,75.277z"/>
	<path fill="#FFFFFF" d="M140.158,59.3v2.061h2.309v0.718h-2.309v3.441h-0.773v-6.938h3.156V59.3H140.158z"/>
	<path fill="#FFFFFF" d="M152.505,62.06c0,1.997-1.638,3.579-3.616,3.579s-3.616-1.582-3.616-3.579
		c0-1.987,1.638-3.598,3.616-3.598S152.505,60.072,152.505,62.06z M146.045,62.051c0,1.564,1.271,2.871,2.844,2.871
		s2.843-1.307,2.843-2.871c0-1.573-1.251-2.871-2.843-2.871S146.045,60.478,146.045,62.051z"/>
	<path fill="#FFFFFF" d="M156.147,62.713c0,0.516-0.019,1.104,0.304,1.546c0.303,0.424,0.893,0.663,1.398,0.663
		c0.496,0,1.039-0.23,1.361-0.617c0.368-0.441,0.341-1.049,0.341-1.592v-4.131h0.772v4.343c0,0.755-0.055,1.353-0.607,1.923
		c-0.479,0.516-1.168,0.791-1.867,0.791c-0.653,0-1.325-0.248-1.795-0.708c-0.606-0.58-0.681-1.215-0.681-2.006v-4.343h0.773
		V62.713z"/>
	<path fill="#FFFFFF" d="M163.581,58.287l5.41,5.668v-5.373h0.773v7.25l-5.41-5.658v5.346h-0.773V58.287z"/>
	<path fill="#FFFFFF" d="M173.048,58.582h1.307c1.04,0,1.886,0.138,2.705,0.837c0.791,0.682,1.15,1.61,1.15,2.641
		c0,1.013-0.368,1.905-1.132,2.586c-0.828,0.736-1.656,0.874-2.742,0.874h-1.288V58.582z M174.382,64.802
		c0.847,0,1.556-0.119,2.19-0.718c0.57-0.533,0.864-1.261,0.864-2.033c0-0.791-0.304-1.555-0.901-2.079
		c-0.635-0.562-1.334-0.672-2.153-0.672h-0.562v5.502H174.382z"/>
	<path fill="#FFFFFF" d="M182.165,63.551l-0.838,1.969h-0.846l3.201-7.269l3.119,7.269h-0.855l-0.818-1.969H182.165z
		 M183.664,60.054l-1.187,2.779h2.347L183.664,60.054z"/>
	<path fill="#FFFFFF" d="M190.49,65.52h-0.772V59.3h-1.675v-0.718h4.141V59.3h-1.693V65.52z"/>
	<path fill="#FFFFFF" d="M195.605,65.52h-0.772v-6.938h0.772V65.52z"/>
	<path fill="#FFFFFF" d="M205.736,62.06c0,1.997-1.638,3.579-3.616,3.579s-3.616-1.582-3.616-3.579
			c0-1.987,1.638-3.598,3.616-3.598S205.736,60.072,205.736,62.06z M199.276,62.051c0,1.564,1.271,2.871,2.844,2.871
			s2.843-1.307,2.843-2.871c0-1.573-1.251-2.871-2.843-2.871S199.276,60.478,199.276,62.051z"/>
	<path fill="#FFFFFF" d="M208.669,58.287l5.41,5.668v-5.373h0.773v7.25l-5.41-5.658v5.346h-0.773V58.287z"/>
	<path fill="#FFFFFF" d="M74.524,57.521l5.158-12.077l5.038,12.077H74.524L74.524,57.521z M41.314,57.492l5.158-12.076l5.039,12.076
		H41.314L41.314,57.492z M79.762,37.607l-8.3,18.844c-1.271-2.145-3.618-3.407-6.24-4.557l-1.999-0.879
		c-2.04-0.92-4.719-2.12-4.719-4.719c0-2.759,2.319-4.679,4.999-4.679c2.559,0,3.999,1.2,5.198,3.279l2.679-1.719
		c-1.6-2.959-4.438-4.678-7.797-4.678c-4.479,0-8.438,2.999-8.438,7.677c0,4.319,3.039,6.118,6.558,7.717l1.839,0.8
		c2.799,1.279,5.558,2.479,5.558,5.998c0,3.398-2.959,5.877-6.198,5.877c-2.531,0-4.524-1.537-5.485-3.678
		c-0.001-0.002-0.005-0.004-0.006-0.008L46.553,37.579L32.638,69.168h3.679l3.639-8.557h12.875l1.395,3.354c0,0.002,0,0.004,0,0.004
		c0.004,0.012,0.01,0.021,0.015,0.033l0.031,0.074l0.006,0.006c1.499,3.434,4.669,5.605,8.705,5.605
		c4.004,0,7.416-2.363,8.806-5.832l0.007,0.006l1.37-3.221H86.04l3.559,8.557h3.719L79.762,37.607L79.762,37.607z"/>
</g>
</svg>
