<?xml version="1.0" encoding="utf-8"?>
<!-- Generator: Adobe Illustrator 16.0.3, SVG Export Plug-In . SVG Version: 6.00 Build 0)  -->
<!DOCTYPE svg PUBLIC "-//W3C//DTD SVG 1.1//EN" "http://www.w3.org/Graphics/SVG/1.1/DTD/svg11.dtd">
<svg version="1.1" id="Layer_1" xmlns="http://www.w3.org/2000/svg" xmlns:xlink="http://www.w3.org/1999/xlink" x="0px" y="0px"
	 width="332.704px" height="288.791px" viewBox="0 0 332.704 288.791" enable-background="new 0 0 332.704 288.791"
	 xml:space="preserve">
<g>
	<path fill="#83145A" d="M250.365,288.791H82.814L0,144.396L82.339,0H248.93l83.774,144.396L250.365,288.791z M103.957,252.293
		h125.205l61.437-107.74L227.91,36.499H103.542L42.046,144.343L103.957,252.293z"/>
</g>
<g>
	<path fill="#FFFFFF" d="M204.678,103.831l-19.69,44.7c-3.013-5.084-8.581-8.081-14.802-10.81l-4.744-2.085
		c-4.837-2.184-11.192-5.029-11.192-11.194c0-6.546,5.502-11.099,11.857-11.099c6.072,0,9.485,2.847,12.332,7.779l6.355-4.08
		c-3.794-7.019-10.528-11.097-18.498-11.097c-10.623,0-20.014,7.114-20.014,18.212c0,10.244,7.209,14.512,15.557,18.307l4.364,1.898
		c6.64,3.034,13.186,5.881,13.186,14.228c0,8.063-7.021,13.944-14.704,13.944c-6.002,0-10.73-3.648-13.011-8.727
		c-0.001-0.006-0.011-0.011-0.014-0.017l-25.76-60.028l-33.009,74.936h8.727l8.632-20.298h30.543l3.309,7.955
		c0.001,0.003,0,0.008,0.001,0.012c0.011,0.025,0.024,0.049,0.035,0.075l0.075,0.177l0.013,0.013
		c3.556,8.147,11.077,13.3,20.65,13.3c9.497,0,17.592-5.605,20.888-13.833l0.017,0.01l3.25-7.642h30.543l8.442,20.3h8.821
		L204.678,103.831z M113.473,151.001l12.237-28.646l11.953,28.646H113.473z M192.253,151.069l12.236-28.647l11.951,28.647H192.253z"
		/>
</g>
<g>
</g>
<g>
</g>
<g>
</g>
<g>
</g>
<g>
</g>
<g>
</g>
</svg>
